<?xml version="1.0" encoding="utf-8"?>
<!-- Generator: Adobe Illustrator 20.1.0, SVG Export Plug-In . SVG Version: 6.00 Build 0)  -->
<svg version="1.1" id="Calque_1" xmlns="http://www.w3.org/2000/svg" xmlns:xlink="http://www.w3.org/1999/xlink" x="0px" y="0px"
	 viewBox="0 0 80.9 83.8" style="enable-background:new 0 0 80.9 83.8;" xml:space="preserve">
<style type="text/css">
	.st0{fill:#A1C446;}
</style>
<g id="XMLID_1_">
	<g>
		<path class="st0" d="M74.6,55.3c1.5,0.9,1.9,2.5,0.8,3.9c-0.5,0.6-1.2,1.2-1.9,1.5c-3.7,1.3-6.6,3.8-9.6,6.1
			c-1.7,1.3-3.4,2.6-5.2,3.8c-1.7,1.2-3.6,2-5.6,2.5c-3,0.9-5.9,2-8.8,2.9c-3.8,1.2-7.6,2.3-11.5,2.7c-4.1,0.4-8.2,0.5-12-1.3
			C13.6,74,9.7,68.3,9.4,60.2c0-0.4,0-0.9,0-1.3c0,0,0,0-0.1,0c0.1-1.8,0.2-3.6,0.4-5.4c0.3-2.8,0.1-5.6-0.4-8.4
			c-1.5-8.7-3.1-17.4-4.7-26.1c-0.1-0.7-0.1-1.5-0.1-2.3c0-0.7,0.5-1.3,1.1-1.6c1-0.5,2-0.4,3,0.1c0.7,0.4,0.9,1.1,1.1,1.8
			c0.9,3.8,1.8,7.6,2.7,11.4c1.2,4.9,2.4,9.8,3.6,14.7c0.1,0.2,0.1,0.5,0.2,0.7c0.2,0.6,0.7,0.8,1.3,0.6c0.6-0.2,0.9-0.6,0.7-1.2
			c-0.2-1.1-0.5-2.1-0.8-3.2c-2.3-9.5-4.5-19-6.8-28.4c-0.4-1.7,0-2.7,1.2-3.3c1.4-0.7,2.9-0.1,3.5,1.4c0.5,1.3,0.9,2.7,1.3,4
			c2.4,8.2,4.9,16.4,7.3,24.6c0.1,0.3,0.2,0.6,0.3,0.9c0.6,1.5,1.7,2.1,3.1,2c1.3-0.1,2.4-1.1,2.8-2.5c0.4-1.4,0.6-2.8,1-4.2
			c2.4-8.8,4.8-17.6,7.2-26.3c0.1-0.5,0.3-1,0.5-1.5c0.7-1.5,2-2.1,3.6-1.6c1.5,0.4,2.3,1.6,2,3.2c-0.4,2.1-0.9,4.2-1.4,6.4
			c-2,9.1-3.9,18.1-5.8,27.2c-0.1,0.3-0.1,0.6-0.1,0.8c0,0.5,0.3,0.8,0.8,0.9c0.5,0.1,0.9-0.1,1.1-0.5c0.1-0.3,0.2-0.6,0.3-0.9
			c2.2-9.7,4.5-19.5,6.7-29.2c0.1-0.5,0.3-1.1,0.5-1.6c0.5-1.3,1.7-2,3.1-1.8c1.5,0.2,2.6,1.1,2.8,2.5c0.1,0.9,0,1.8-0.1,2.6
			c-1.7,9.3-3.4,18.6-5.1,27.9c-0.6,3.1-1,6.3-0.9,9.5c0,1.2,0.2,2.4,0.6,3.5c1.4,4,5.6,6.1,9.7,4.8c1.4-0.4,2.7-1.2,4-1.9
			c1.6-0.8,3.1-1.8,4.7-2.6c2.4-1.2,4.9-1.7,7.5-1.2C73.5,54.8,74.1,55,74.6,55.3z"/>
	</g>
	<g>
	</g>
</g>
</svg>
