<?xml version="1.0" encoding="utf-8"?>
<!-- Generator: Adobe Illustrator 20.1.0, SVG Export Plug-In . SVG Version: 6.00 Build 0)  -->
<svg version="1.1" id="Calque_1" xmlns="http://www.w3.org/2000/svg" xmlns:xlink="http://www.w3.org/1999/xlink" x="0px" y="0px"
	 viewBox="0 0 80.9 83.8" style="enable-background:new 0 0 80.9 83.8;" xml:space="preserve">
<style type="text/css">
	.st0{fill:#A1C446;}
</style>
<g>
	<g id="XMLID_2_">
		<g>
			<path class="st0" d="M61,47.8c-1.9-1.5-4.1-1.9-6.5-1.9c-1.2,0-2.5-0.1-3.9-0.2c0.1-1.1,0.2-2.1,0.3-3.2c0.3-2.7,0.6-5.4,1.1-8
				c0.2-1.1,0.7-2.1,1-3.2c2.6-7.9,5.1-15.8,7.7-23.6c0.5-1.5,1.5-2.5,3-2.7c2.1-0.3,4,1.2,4.1,3.3c0,0.6-0.1,1.2-0.2,1.8
				c-2.1,10.2-4.2,20.3-6.3,30.5c-0.5,2.3-0.7,4.6-0.1,6.9c0,0.1,0,0.2,0,0.3C61.1,47.8,61,47.8,61,47.8z"/>
			<path class="st0" d="M47.5,26.5c1.9,0.9,2.8,2.7,2.6,5.1c-0.1,1.2-0.3,2.5-0.5,3.7c-0.4,3.1-0.8,6.1-1.2,9.2
				c0,0.3-0.1,0.5-0.2,0.8c-3.1-0.4-6-1.2-8.7-2.4c-0.1-0.2-0.1-0.3-0.1-0.4c0-3.7,0-7.4,0-11.1c0-0.4,0.1-0.9,0.1-1.3
				c0.3-2.2,1.7-3.7,3.8-4.2C44.7,25.7,46.2,25.9,47.5,26.5z"/>
			<path class="st0" d="M36.4,38.3c0,1,0,2,0,3.3c-1.4-0.8-2.5-1.5-3.6-2.2c-1.7-1.1-3.4-2.2-5.1-3.2c-0.2-0.2-0.4-0.5-0.5-0.7
				c-0.1-0.8-0.2-1.5-0.3-2.3c-0.5-3.3,1.9-5.9,5.7-5.5c2.2,0.3,3.6,1.6,3.7,3.9C36.4,33.8,36.4,36,36.4,38.3z"/>
			<path class="st0" d="M47.8,47.5c2.3,0.3,4.6,0.4,6.9,0.6c0.7,0.1,1.4,0,2.1,0.1c2.9,0.5,5,2.8,5.2,5.9c0.3,6.1-1,11.8-4.7,16.7
				c-3,3.9-6.9,6.3-11.7,7.4c-6.3,1.4-12.4,0.8-18-2.5c-6.1-3.6-9.8-8.8-11.1-15.8c-0.2-1.2-0.3-2.4-0.3-3.6c0-3.2-0.1-6.3,0-9.4
				c0.1-3.2-0.3-6.4-0.6-9.5c-0.4-3.9-0.8-7.9-1.1-11.8c-0.4-4.3-0.9-8.6-1.3-12.9c-0.3-2.5,1.8-4.4,4.1-3.8c1.3,0.3,2,1.2,2.3,2.5
				c0.5,2.4,0.9,4.8,1.4,7.1c1.1,5.6,2.2,11.1,3.3,16.7c0,0.2,0.1,0.4,0.1,0.6c-0.6,0.2-1,0.4-1.5,0.6c-2.3,1.1-3.6,3.5-3.1,6.1
				c0.7,4,2.7,7.3,5.4,10.2c4,4.4,9,7,14.6,8.6c4.7,1.3,9.6,1.9,14.5,2c0.3,0,0.7,0,1-0.1c0.5-0.2,0.8-0.5,0.8-1.1
				c0-0.5-0.3-1-0.8-1.1c-0.5-0.1-1-0.1-1.6-0.1c-5.7-0.1-11.3-0.9-16.7-3c-4.2-1.6-7.9-4.1-10.8-7.6c-1.9-2.3-3.3-4.8-4-7.7
				c-0.8-3.3,1.7-5,4-4.8c0.5,0,1.1,0.3,1.6,0.5c1.1,0.6,2.1,1.4,3.1,2.1C35.8,44.2,41.5,46.7,47.8,47.5z"/>
		</g>
		<g>
		</g>
	</g>
</g>
</svg>
