<?xml version="1.0" encoding="utf-8"?>
<!-- Generator: Adobe Illustrator 20.1.0, SVG Export Plug-In . SVG Version: 6.00 Build 0)  -->
<svg version="1.1" id="Calque_1" xmlns="http://www.w3.org/2000/svg" xmlns:xlink="http://www.w3.org/1999/xlink" x="0px" y="0px"
	 viewBox="0 0 57.5 83.7" style="enable-background:new 0 0 57.5 83.7;" xml:space="preserve">
<style type="text/css">
	.st0{fill:#A3C646;}
</style>
<g id="XMLID_1_">
	<g>
		<path class="st0" d="M50.9,9.6c1.7,0.5,2.8,2.2,2.4,4c-0.4,1.7-0.8,3.4-1.1,5.2c-1.7,8-3.3,16.1-4.9,24.1c-0.4,2.2-0.5,4.4,0,6.8
			c-0.3-0.2-0.5-0.2-0.7-0.3c-1.5-1-3.1-1.5-4.9-1.5c-4.8,0-9.5-0.7-14.1-2.4c-1-0.4-1.7-0.9-1.9-2c-0.3-1.2-0.8-2.4-1.2-3.8
			c1.7-0.6,2.1-1.8,2-3.2c-0.1-2.3-0.2-4.6-0.3-6.9c-0.3-5.4-0.6-10.9-0.9-16.3c-0.1-1.5-0.2-3-0.2-4.5c0-0.5,0-1,0.1-1.6
			c0.2-1.4,1-2.2,2.4-2.6c1.4-0.3,2.6,0.1,3.4,1.3c0.5,0.7,0.8,1.6,0.9,2.4c0.5,4.6,0.8,9.2,1.3,13.7c0.4,4,0.8,7.9,1.2,11.9
			c0,0.5,0.2,1.1,0.5,1.6c0.9,1.6,3.1,1.7,4.1,0.1c0.3-0.4,0.4-0.9,0.6-1.3c2.4-7.3,4.8-14.6,7.2-21.9c0.1-0.3,0.2-0.7,0.4-1
			C47.6,9.7,49,9,50.9,9.6z"/>
		<path class="st0" d="M47.6,55.2c0.3,2.5,0,5.1-0.5,7.6c-0.8,3.9-2.5,7.3-5.2,10.2c-3.3,3.5-7.5,5.3-12.2,5.8
			c-5.5,0.7-10.6-0.3-15.3-3.3c-5.2-3.3-8.6-8-9.8-14.2c-0.1-0.5-0.2-1.1-0.2-1.7c0-2.9,0-5.7,0-8.6c0.1,0,0.1-0.1,0.2-0.1
			C4.8,51.3,5,51.7,5.3,52c0.9,1.4,1.8,2.8,2.8,4.1c2.1,2.4,4.2,2.7,6.9,0.9c0.1-0.1,0.2-0.1,0.3-0.2c0.1,0.1,0.3,0.2,0.4,0.2
			c4.1,3.3,8.9,5.1,14,6.2c3.4,0.7,6.8,1,10.2,1c0.4,0,0.7,0,1.1,0c0.5-0.1,0.8-0.4,0.8-0.9c0-0.5-0.2-1-0.7-1.1
			c-0.3-0.1-0.6-0.1-1-0.1c-4.5-0.1-8.8-0.5-13.1-1.8c-4.4-1.3-8.3-3.2-11.6-6.4c-2.6-2.5-4.6-5.5-5.4-9.1c-0.3-1.5,0-2.7,1.2-3.7
			c1.2-0.9,2.9-1,4.2-0.2c1.1,0.7,2.2,1.5,3.3,2.2c6.5,4.5,13.7,6.6,21.6,6.7c0.8,0,1.7,0,2.5,0.2C45.4,50.7,47.3,52.6,47.6,55.2z"
			/>
		<path class="st0" d="M23.2,43.4c-0.4-0.2-0.7-0.3-1-0.5c-1.4-0.9-2.9-1.9-4.3-2.8c-1.7-1.1-3.3-2.2-5.5-1.6
			c-0.9-1.7-1.1-3.3-0.1-4.9c1.1-1.6,2.7-2.3,4.6-2.2c1,0,1.9,0.6,2.6,1.4c0.3,0.5,0.7,0.9,0.8,1.5C21.2,37.3,22.2,40.2,23.2,43.4z"
			/>
		<path class="st0" d="M12.8,54.5c0.3,0.3,0.6,0.6,0.9,1c-1.5,1.1-2.3,1-3.6-0.1c-1.5-1.5-2.7-3.2-3.6-5.1c-0.8-1.6-1.6-3.2-2.2-4.8
			c-0.6-1.5-0.5-3,0.6-4.2c1.2-1.3,2.7-1.6,4.5-1.2c-0.3,0.4-0.4,0.6-0.6,0.9C8,42.1,7.6,43.5,7.9,45C8.6,48.6,10.4,51.7,12.8,54.5z
			"/>
	</g>
	<g>
	</g>
</g>
</svg>
