<svg xmlns="http://www.w3.org/2000/svg" version="1.1" x="0" y="0" viewBox="0 0 176.2 24.5" xml:space="preserve"><path d="M33.6 2.7l2.2 0 0 14.9c0 1.4-0.1 2.4-0.4 3.1 -0.3 0.7-0.7 1.2-1.4 1.6 -0.6 0.4-1.4 0.6-2.3 0.6 -0.1 0-0.4 0-0.7-0.1l-0.4-2h0.6c0.6 0 1.1-0.1 1.4-0.2 0.3-0.2 0.6-0.4 0.8-0.8 0.2-0.4 0.3-1.2 0.3-2.4L33.6 2.7zM46.5 2.5c2.3 0 4.3 0.7 5.8 2.2 1.6 1.5 2.3 3.3 2.3 5.6 0 2.2-0.8 4.1-2.4 5.5 -1.6 1.5-3.5 2.2-5.9 2.2 -2.3 0-4.2-0.7-5.7-2.2 -1.5-1.5-2.3-3.3-2.3-5.5 0-2.3 0.8-4.1 2.3-5.6C42.2 3.2 44.2 2.5 46.5 2.5zM46.6 4.6c-1.7 0-3.2 0.5-4.3 1.6 -1.1 1.1-1.7 2.5-1.7 4.1 0 1.6 0.6 3 1.7 4.1 1.1 1.1 2.5 1.6 4.2 1.6 1.7 0 3.1-0.6 4.2-1.7 1.1-1.1 1.7-2.5 1.7-4.1 0-1.6-0.6-2.9-1.7-4C49.6 5.1 48.2 4.6 46.6 4.6zM62.4 17.8l-5.1 0 0-15.1 4 0c1.2 0 2.2 0.2 2.9 0.5 0.7 0.3 1.2 0.8 1.6 1.4 0.4 0.6 0.6 1.3 0.6 2 0 1.5-0.8 2.5-2.3 3.2 1.1 0.2 2 0.7 2.6 1.4 0.7 0.7 1 1.5 1 2.5 0 0.8-0.2 1.5-0.6 2.1 -0.4 0.6-1 1.1-1.7 1.5C64.6 17.6 63.6 17.8 62.4 17.8zM61.3 4.6l-1.9 0v4.5h1.4c1.2 0 2-0.2 2.5-0.7 0.5-0.4 0.7-1 0.7-1.7C64.1 5.4 63.2 4.6 61.3 4.6zM61.5 11.1h-2l0 4.8 2.1 0c1.2 0 2-0.1 2.4-0.3 0.4-0.2 0.8-0.5 1-0.9 0.3-0.4 0.4-0.8 0.4-1.3 0-0.5-0.1-0.9-0.4-1.3 -0.3-0.4-0.7-0.7-1.2-0.9C63.4 11.2 62.6 11.1 61.5 11.1z"/><path d="M68.5 2.7l12.6 0v1.9l-5.3 0v13.2h-2.2l0-13.2 -5.2 0V2.7zM83.2 2.7l8.6 0v1.9l-6.4 0 0 4.6 6.2 0v1.9l-6.2 0v4.7l6.6 0v1.9l-8.8 0V2.7zM99.1 2.6l1.5 0 6.8 15.2h-2.2l-2-4.5 -6.4 0 -1.9 4.5h-2.2L99.1 2.6zM102.3 11.4L99.8 6l-2.3 5.5L102.3 11.4zM112.8 11.5l-1.6-1c-1-0.6-1.8-1.2-2.2-1.9 -0.4-0.6-0.7-1.3-0.7-2.1 0-1.2 0.4-2.2 1.2-2.9 0.8-0.7 1.9-1.1 3.2-1.1 1.3 0 2.4 0.4 3.5 1.1V6c-1.1-1-2.3-1.6-3.5-1.6 -0.7 0-1.3 0.2-1.7 0.5 -0.5 0.3-0.7 0.7-0.7 1.3 0 0.5 0.2 0.9 0.5 1.3 0.3 0.4 0.9 0.8 1.6 1.2l1.7 1c1.8 1.1 2.8 2.5 2.8 4.2 0 1.2-0.4 2.2-1.2 3 -0.8 0.8-1.9 1.1-3.2 1.1 -1.5 0-2.9-0.5-4.1-1.4v-2.7c1.2 1.5 2.5 2.2 4.1 2.2 0.7 0 1.2-0.2 1.7-0.6 0.5-0.4 0.7-0.8 0.7-1.4C114.8 13.2 114.1 12.3 112.8 11.5zM119.2 2.7l8.6 0 0 1.9 -6.4 0v4.6l6.2 0v1.9l-6.2 0v4.7l6.6 0v1.9l-8.8 0L119.2 2.7zM130.3 17.8l0-15.1 3.8 0c1.5 0 2.7 0.4 3.6 1.1 0.9 0.8 1.3 1.8 1.3 3.1 0 0.9-0.2 1.6-0.7 2.3 -0.4 0.6-1.1 1.1-1.9 1.4 0.5 0.3 1 0.7 1.4 1.3 0.5 0.5 1.1 1.5 1.9 2.9 0.5 0.9 0.9 1.5 1.3 1.9l0.8 1.1h-2.6l-0.7-1c0 0-0.1-0.1-0.1-0.2l-0.4-0.6 -0.7-1.1 -0.7-1.2c-0.4-0.6-0.9-1.1-1.2-1.5 -0.4-0.4-0.7-0.6-1-0.8 -0.3-0.2-0.8-0.2-1.5-0.2l-0.6 0v6.6H130.3zM133.1 4.6l-0.6 0v4.8h0.8c1.1 0 1.8-0.1 2.3-0.3 0.4-0.2 0.7-0.5 1-0.8 0.2-0.4 0.3-0.8 0.3-1.3 0-0.5-0.1-0.9-0.4-1.3 -0.3-0.4-0.6-0.7-1.1-0.8C135 4.6 134.2 4.6 133.1 4.6z"/><path d="M143.5 16.3c0.2 0 0.4 0.1 0.6 0.2 0.2 0.2 0.2 0.4 0.2 0.6 0 0.2-0.1 0.4-0.2 0.6 -0.2 0.2-0.4 0.2-0.6 0.2 -0.2 0-0.4-0.1-0.6-0.2 -0.2-0.2-0.2-0.3-0.2-0.6 0-0.2 0.1-0.4 0.2-0.6C143.1 16.4 143.3 16.3 143.5 16.3z"/><path d="M154.3 15.6v1.5c-1 0.5-2.1 0.8-3.5 0.8 -1.1 0-2-0.2-2.7-0.6 -0.7-0.4-1.3-1-1.8-1.8 -0.4-0.7-0.6-1.6-0.6-2.4 0-1.4 0.5-2.5 1.5-3.5 1-0.9 2.2-1.4 3.6-1.4 1 0 2.1 0.3 3.3 0.8v1.5c-1.1-0.6-2.2-1-3.3-1 -1.1 0-2 0.3-2.7 1 -0.7 0.7-1.1 1.5-1.1 2.6 0 1 0.4 1.9 1.1 2.6 0.7 0.7 1.6 1 2.7 1C152 16.7 153.2 16.3 154.3 15.6zM160.6 8.2c1.5 0 2.7 0.5 3.7 1.4 1 0.9 1.5 2.1 1.5 3.5 0 1.4-0.5 2.6-1.5 3.5 -1 0.9-2.2 1.4-3.7 1.4 -1.4 0-2.6-0.5-3.6-1.4 -1-0.9-1.4-2.1-1.4-3.4 0-1.4 0.5-2.6 1.4-3.5C157.9 8.7 159.1 8.2 160.6 8.2zM160.6 9.5c-1.1 0-2 0.3-2.7 1 -0.7 0.7-1 1.5-1 2.6 0 1 0.4 1.9 1.1 2.6 0.7 0.7 1.6 1 2.6 1 1.1 0 1.9-0.3 2.7-1 0.7-0.7 1.1-1.6 1.1-2.6 0-1-0.4-1.9-1.1-2.5C162.5 9.8 161.7 9.5 160.6 9.5zM174.9 8.3h1.3v9.5l-1.4 0v-7.4l-2.9 3.7h-0.3l-3-3.7v7.4h-1.4l0-9.5 1.3 0 3.2 3.9L174.9 8.3z"/><path class="Svg-jobteaser" d="M24.5 2.4V22c0 1.3-1.1 2.4-2.4 2.4H7.3v-1.9L20.2 6.6h-7L18.1 0H22C23.4 0 24.5 1.1 24.5 2.4zM12.4 10.4L7.3 22.5v1.9H2.4C1.1 24.5 0 23.4 0 22V2.4C0 1.1 1.1 0 2.4 0h9.2L6.3 10 12.4 10.4z"/></svg>
