<svg xmlns="http://www.w3.org/2000/svg" xmlns:xlink="http://www.w3.org/1999/xlink" version="1.1" id="Calque_1" x="0" y="0" viewBox="0 0 498.5 360" xml:space="preserve" enable-background="new 0 0 498.5 360"><style type="text/css">
	.stRocket{clip-path:url(#SVGID_2_);}
</style><g><defs><rect id="SVGID_1_" width="498.5" height="360"/></defs><clipPath id="SVGID_2_"><use xlink:href="#SVGID_1_" overflow="visible"/></clipPath><g class="stRocket"><path d="M243.7-3.5c7.2-8 14.2-15.9 21.4-23.5 31.8-34 68.6-61.3 110.5-81.5 23.2-11.2 47.9-17.7 73.4-21.2 11.7-1.6 23.5-2.2 35.3-3 11-0.7 13.3 1.5 12.9 12.2 -1.5 49.1-12.8 95.3-38.9 137.6 -22.7 36.8-50.6 69-83.5 96.9 -2.2 1.9-4.3 3.8-6.9 6 1.1 3.9 2.3 7.8 3.2 11.8 4.3 18.1 1.5 35.5-5 52.6 -9.5 24.7-25.7 44.8-44.9 62.6 -22.5 20.8-48.2 36.8-76.1 49.3 -1.7 0.8-3.7 2.1-5.3 1.9 -2.6-0.4-5.7-1.4-7.2-3.3 -1.2-1.4-0.7-4.8 0-6.9 0.8-2.3 3-4.1 4.3-6.3 9.3-14.9 18.9-29.6 27.5-44.9 4.7-8.3 7.1-17.7 6.9-27.6 -0.1-6.8-2.5-12.4-7.1-17.3 -3.5-3.7-6.9-6.3-12.4-3.2 -3.9 2.2-7.3 0.2-10.3-2.8 -4.2-4.3-8.6-8.5-13.1-12.9 -3.1 1.9-5.8 3.6-8.5 5.2 -18.8 11.4-37.7 22.9-56.5 34.3 -1.4 0.8-2.7 1.7-4.2 2.4 -3.2 1.5-6.7 1.7-8.5-1.5 -1.3-2.1-1.5-5.3-1.1-7.8 0.4-2.4 2.2-4.5 3.5-6.7 11.5-18.8 22.9-37.7 34.4-56.5 1.2-1.9 2.3-3.8 3.9-6.5 -3.6-3.6-7.1-7.2-10.7-10.8 -7.7-7.7-7.7-7.7-3.8-18.3 -7.3-12.4-17.4-17-32.4-13.1 -8.6 2.2-17.2 5.4-24.8 9.8 -13.2 7.7-25.7 16.6-38.6 25 -3.8 2.5-7.4 7.2-12.6 2.8 -5-4.2-2-8.8 0-13 16.9-37.2 39.3-70.3 71.3-96.2 17.8-14.5 37.5-25.4 60.4-29.7C215.1-10.3 229.4-8.9 243.7-3.5zM250 174.3c90.3-40.6 163.4-99.1 208.7-186.6 -27.3-27.3-53.8-53.9-81.3-81.3 -88.1 44.7-146.9 117.3-187 206.1 3.7 4.2 6.5 7.5 9.7 11.2 2.2-3 4.2-5.4 6-8 13.1-17.8 27-34.9 45.3-47.8 13.9-9.8 29-16 46.4-15.6 12 0.3 14 2.2 14.3 13.8 0.7 21-8.2 38.4-21 54.2 -12 14.8-26.7 26.6-41.9 37.8 -2.8 2.1-5.5 4.1-8.4 6.3C244.2 167.9 246.9 170.9 250 174.3zM271.8 181.4c0-0.2-0.1 0.2 0 0.4 0.5 0.8 1 1.6 1.6 2.3 13.2 14.7 14.9 31.4 7.5 49 -4.1 9.7-9.4 18.8-14.1 28.2 -0.9 1.8-1.7 3.6-3.3 7.2 19.3-10.7 35.4-21.9 50.3-35 12.5-11.1 23.5-23.5 31.6-38.2 7.5-13.6 12.3-28.1 12.2-43.8 0-6.5-0.1-13.2-3.6-18.3C326.3 149.5 299.2 165.4 271.8 181.4zM231.1 10.5c-11.5-5.1-22.9-6-35.3-2.7 -20.5 5.6-38 16.5-53.3 30.9 -17.2 16.1-30.7 35.1-42.7 55.1 -1 1.7-1.8 3.6-3.6 7.5 5-2.9 7.9-4.8 10.9-6.3 10.7-5 21.1-11.1 32.3-14.3 15.7-4.6 31.2-3.9 42.6 10.8 0.3 0.3 1.1 0.2 0.8 0.2C198.9 64.6 214.8 37.8 231.1 10.5zM179.1 183.6c0.6 0.6 1.2 1.2 1.7 1.9 13.7-8.6 27.8-16.7 41-26 15.6-11 30.9-22.6 45.6-34.9 11.6-9.7 20.6-21.9 25.5-36.5 2-6.2 4.5-12.5 2.5-20 -12.9 0.2-24.1 4.3-34.5 10.9 -12.6 8-23.3 18.2-31.9 30.1 -14.4 19.9-27.9 40.5-41.7 60.8C184.5 174.3 181.9 179 179.1 183.6zM482.5-118c-30.5 1.4-58.8 6.3-84.8 16.7 23 23 45.6 45.6 68.5 68.5C476.3-59.1 481.1-87.4 482.5-118zM396.4 2.9c0.1 19.7-15.3 35.5-34.9 35.7 -19.3 0.2-35.5-15.8-35.7-35.2C325.6-16 341.3-31.9 361-32 380.9-32.1 396.3-16.9 396.4 2.9zM361.2 24.3c11.7 0 21.4-9.5 21.4-21.1 0-11.4-9.9-21.3-21.3-21.4 -11.5-0.1-21.2 9.7-21.2 21.3C340.1 15 349.3 24.3 361.2 24.3z"/><path d="M97.5 324.9c-1.8-1.9-4.7-5-9.4-9.9 37.3-35.7 67.8-77.4 113.8-94.5C169.7 252.8 134.7 287.8 97.5 324.9zM61.7 260.7c-4.1-3.9-7.5-7.2-10.1-9.6 31.7-31.5 62.8-62.5 91.3-90.9C138.7 180.7 110.4 217 61.7 260.7zM47 325.3c-3.1-3.4-6.2-6.9-8.4-9.2 26.3-26.2 51.8-51.6 78.7-78.3 1.9 2.1 5.6 6.1 8.2 8.8C99.3 272.9 73.9 298.3 47 325.3zM35.4 340.7c-5.2 4.8-8.7 8.1-12.7 11.8 -3.9-3.6-7.4-6.8-11.9-11 3.6-4.4 6.9-8.3 10.9-13.1C26.4 332.6 30.2 336 35.4 340.7zM74.6 355.2c-4.8-5.7-7.9-9.3-11.5-13.5 3.6-4.3 6.6-7.8 10.5-12.5 4.6 3.7 8.6 7 14.9 12.2C83.9 345.9 80.3 349.5 74.6 355.2zM22.6 275.6c5.4-4.7 9-7.8 13.2-11.5 4 3.8 7.4 6.9 11.4 10.7 -3.5 4.1-6.5 7.7-10.5 12.5C32.2 283.5 28.3 280.3 22.6 275.6z"/></g></g></svg>
