<?xml version="1.0" encoding="utf-8"?>
<!-- Generator: Adobe Illustrator 20.1.0, SVG Export Plug-In . SVG Version: 6.00 Build 0)  -->
<svg version="1.1" id="Calque_1" xmlns="http://www.w3.org/2000/svg" xmlns:xlink="http://www.w3.org/1999/xlink" x="0px" y="0px"
	 viewBox="0 0 397.4 396.9" style="enable-background:new 0 0 397.4 396.9;" xml:space="preserve">
<path d="M199.1,0C88.8-1,0.6,88.4,0,196.6c-0.6,113.1,89.2,198.6,195.4,200.3c113.2,1.7,201.6-89.4,202-198
	C397.7,88.9,307.8-0.9,199.1,0z"/>
<path class="Svg-spotifyCircle" d="M199.1,0c108.7-0.9,198.7,88.9,198.3,198.9c-0.4,108.5-88.8,199.7-202,198C89.2,395.2-0.6,309.7,0,196.6
	C0.6,88.4,88.8-1,199.1,0z M61.7,134.5c-0.5,12.6,11.7,21.9,23.8,18.3c6.5-1.9,13.1-4,19.8-5c12.3-1.9,24.6-3.1,37-4.5
	c19.5-2.2,39.2-2.1,58.6,0.2c16.7,2,33.5,4.3,50,7.6c22.8,4.5,44.8,12.7,64.8,24.5c3.9,2.5,8.6,3.3,13.1,2.5
	c8.5-1.6,13.6-7.2,15.2-17.1c1-6.1-3.4-14.2-9.5-17.3c-9.1-4.5-18.2-8.8-27.4-13.3c-14.2-6.9-29.3-11-44.6-14.7
	c-8.9-2.1-18-3.4-27-5.3c-19-3.9-38.2-4.8-57.5-5.5c-9.4-0.3-18.7,0-28.1,0.7c-13.1,0.9-26.2,1.8-39.2,3.8
	c-11.6,1.8-23.1,5-34.5,7.9C67.1,119.5,62,125.6,61.7,134.5z M173.4,172.6c-12,0.6-24,1.1-36,2c-17.4,1.3-34.5,4.6-51.2,9.9
	c-8.7,2.7-13.1,11.1-10.5,19.6c2.4,7.9,11.1,12.3,19.5,9.9c4.9-1.4,9.9-2.9,14.9-4c16-3.5,32.3-5.4,48.6-5.6
	c10.4-0.1,20.8-0.4,31.1,0.7c12.6,1.5,25.1,3.6,37.4,6.5c10.8,2.4,21.7,5.2,31.9,9.3c11.8,4.8,22.9,11.1,34.3,16.8
	c6.1,3.1,11.9,2.1,17.2-1.8c4.5-3.2,6.6-10.7,4.9-16.3c-1.9-6.3-7-9.1-12.3-12.1c-20.6-12-42.7-20.1-65.7-25.8
	C216.5,176.6,195,173.5,173.4,172.6z M169,237.4c-10.6,0.8-23.6,1.4-36.4,3c-13.3,1.6-26.4,4.1-39.6,6.6c-6.4,1.2-10.7,7.4-9.5,13.8
	c0,0.1,0,0.1,0,0.2c1.7,7.5,7.7,11.4,14.8,10.2c16.8-2.7,33.5-6.1,50.4-7.5c15-1.1,30-1,44.9,0.4c11.3,0.9,22.5,3.9,33.6,6.5
	c6.4,1.5,12.6,3.6,18.6,6.3c9.4,4.2,18.4,9.1,27.6,13.7c6.3,3.1,12.8,1.2,16.3-4.7c3.5-5.7,1.6-13.1-4.1-16.6
	c-0.1-0.1-0.2-0.1-0.3-0.2c-14.7-8.8-30.3-15.9-46.6-21C216.7,241.3,194.2,238.8,169,237.4z"/>
<path class="Svg-spotifyLine" d="M61.7,134.5c0.4-8.8,5.4-15,14.7-17.3c11.5-2.8,22.9-6.1,34.5-7.9c12.9-2,26.1-2.9,39.2-3.8
	c9.3-0.8,18.7-1,28.1-0.7c19.2,0.8,38.5,1.6,57.5,5.5c9,1.9,18.1,3.2,27,5.3c15.2,3.7,30.4,7.7,44.6,14.7
	c9.1,4.5,18.3,8.8,27.4,13.3c6.2,3.1,10.5,11.2,9.5,17.3c-1.6,9.9-6.7,15.5-15.2,17.1c-4.5,0.9-9.2,0-13.1-2.5
	c-20.1-11.8-42-20-64.8-24.5c-16.5-3.3-33.3-5.6-50-7.6c-19.5-2.3-39.1-2.3-58.6-0.2c-12.3,1.4-24.7,2.6-37,4.5
	c-6.7,1-13.3,3.1-19.8,5C73.3,156.4,61.1,147.1,61.7,134.5z"/>
<path class="Svg-spotifyLine" d="M173.4,172.6c21.6,0.9,43.1,4,64.1,9.1c23,5.6,45.1,13.8,65.7,25.8c5.3,3.1,10.4,5.8,12.3,12.1
	c1.7,5.6-0.4,13.1-4.9,16.3c-5.3,3.8-11.1,4.9-17.2,1.8c-11.4-5.7-22.5-12.1-34.3-16.8c-10.2-4.1-21.1-6.9-31.9-9.3
	c-12.3-2.8-24.8-5-37.4-6.5c-10.3-1.1-20.7-0.8-31.1-0.7c-16.4,0.2-32.6,2.1-48.6,5.6c-5,1.1-9.9,2.6-14.9,4
	c-8.4,2.4-17.1-2-19.5-9.9c-2.6-8.4,1.8-16.9,10.5-19.6c16.6-5.3,33.8-8.6,51.2-9.9C149.4,173.7,161.4,173.2,173.4,172.6z"/>
<path class="Svg-spotifyLine" d="M169,237.4c25.2,1.4,47.7,3.9,69.7,10.8c16.3,5.1,32,12.2,46.7,21c5.8,3.3,7.9,10.6,4.6,16.4
	c-0.1,0.1-0.1,0.2-0.2,0.3c-3.5,5.9-10,7.8-16.3,4.7c-9.2-4.6-18.2-9.5-27.6-13.7c-6-2.7-12.2-4.8-18.6-6.3
	c-11.1-2.6-22.3-5.6-33.6-6.5c-14.9-1.3-30-1.4-44.9-0.4c-16.9,1.4-33.6,4.8-50.4,7.5c-7.1,1.2-13.1-2.8-14.8-10.2
	c-1.3-6.4,2.8-12.7,9.2-14c0.1,0,0.2,0,0.3-0.1c13.1-2.5,26.3-5,39.6-6.7C145.4,238.7,158.5,238.2,169,237.4z"/>
</svg>
